<mxfile host="app.diagrams.net" modified="2024-10-08T07:20:52.159Z" agent="Mozilla/5.0 (Windows NT 10.0; Win64; x64) AppleWebKit/537.36 (KHTML, like Gecko) Chrome/129.0.0.0 Safari/537.36" etag="B5QCKhon3fklm-USGV3Z" version="24.7.3" type="device">
  <diagram name="Seite-1" id="KwRC9wN8cxv5vugA4l9y">
    <mxGraphModel dx="1432" dy="746" grid="1" gridSize="10" guides="1" tooltips="1" connect="1" arrows="1" fold="1" page="1" pageScale="1" pageWidth="827" pageHeight="1169" math="0" shadow="0">
      <root>
        <mxCell id="0" />
        <mxCell id="1" parent="0" />
        <mxCell id="go7qBU7iN6wXKlatQVZ4-6" value="" style="edgeStyle=orthogonalEdgeStyle;rounded=0;orthogonalLoop=1;jettySize=auto;html=1;" edge="1" parent="1" source="VR3ee0ewY0EGGMs8ZrZJ-1" target="go7qBU7iN6wXKlatQVZ4-1">
          <mxGeometry relative="1" as="geometry" />
        </mxCell>
        <mxCell id="VR3ee0ewY0EGGMs8ZrZJ-1" value="MoSy Backend&lt;div&gt;&lt;br&gt;&lt;/div&gt;&lt;div&gt;(SpringBoot)&lt;/div&gt;" style="shape=cube;whiteSpace=wrap;html=1;boundedLbl=1;backgroundOutline=1;darkOpacity=0.05;darkOpacity2=0.1;fillColor=#ffe6cc;strokeColor=#d79b00;" parent="1" vertex="1">
          <mxGeometry x="500" y="280" width="240" height="190" as="geometry" />
        </mxCell>
        <mxCell id="VR3ee0ewY0EGGMs8ZrZJ-3" value="MoSy Frontend&lt;div&gt;&lt;br&gt;&lt;/div&gt;&lt;div&gt;(SpringBoot, JSF)&lt;/div&gt;" style="shape=cube;whiteSpace=wrap;html=1;boundedLbl=1;backgroundOutline=1;darkOpacity=0.05;darkOpacity2=0.1;fillColor=#ffe6cc;strokeColor=#d79b00;" parent="1" vertex="1">
          <mxGeometry x="150" y="280" width="240" height="190" as="geometry" />
        </mxCell>
        <mxCell id="VR3ee0ewY0EGGMs8ZrZJ-4" value="User" style="shape=umlActor;verticalLabelPosition=bottom;verticalAlign=top;html=1;outlineConnect=0;fillColor=#f5f5f5;strokeColor=#666666;fontColor=#333333;" parent="1" vertex="1">
          <mxGeometry x="50" y="345" width="30" height="60" as="geometry" />
        </mxCell>
        <mxCell id="VR3ee0ewY0EGGMs8ZrZJ-5" value="REST&lt;div&gt;API&lt;/div&gt;" style="shape=module;align=left;spacingLeft=20;align=center;verticalAlign=top;whiteSpace=wrap;html=1;fillColor=#dae8fc;strokeColor=#6c8ebf;" parent="1" vertex="1">
          <mxGeometry x="520" y="300" width="100" height="50" as="geometry" />
        </mxCell>
        <mxCell id="VR3ee0ewY0EGGMs8ZrZJ-6" value="" style="endArrow=classic;html=1;rounded=0;exitX=0.996;exitY=0.474;exitDx=0;exitDy=0;exitPerimeter=0;entryX=0;entryY=0;entryDx=0;entryDy=15;entryPerimeter=0;" parent="1" source="VR3ee0ewY0EGGMs8ZrZJ-3" target="VR3ee0ewY0EGGMs8ZrZJ-5" edge="1">
          <mxGeometry width="50" height="50" relative="1" as="geometry">
            <mxPoint x="430" y="370" as="sourcePoint" />
            <mxPoint x="480" y="320" as="targetPoint" />
          </mxGeometry>
        </mxCell>
        <mxCell id="VR3ee0ewY0EGGMs8ZrZJ-7" value="" style="endArrow=classic;html=1;rounded=0;entryX=0;entryY=0;entryDx=0;entryDy=85;entryPerimeter=0;" parent="1" source="VR3ee0ewY0EGGMs8ZrZJ-4" target="VR3ee0ewY0EGGMs8ZrZJ-3" edge="1">
          <mxGeometry width="50" height="50" relative="1" as="geometry">
            <mxPoint x="100" y="395" as="sourcePoint" />
            <mxPoint x="150" y="345" as="targetPoint" />
          </mxGeometry>
        </mxCell>
        <mxCell id="VR3ee0ewY0EGGMs8ZrZJ-8" value="Client - System A" style="shape=cube;whiteSpace=wrap;html=1;boundedLbl=1;backgroundOutline=1;darkOpacity=0.05;darkOpacity2=0.1;fillColor=#f5f5f5;fontColor=#333333;strokeColor=#666666;" parent="1" vertex="1">
          <mxGeometry x="280" y="80" width="120" height="80" as="geometry" />
        </mxCell>
        <mxCell id="VR3ee0ewY0EGGMs8ZrZJ-9" value="Client - System B" style="shape=cube;whiteSpace=wrap;html=1;boundedLbl=1;backgroundOutline=1;darkOpacity=0.05;darkOpacity2=0.1;fillColor=#f5f5f5;fontColor=#333333;strokeColor=#666666;" parent="1" vertex="1">
          <mxGeometry x="440" y="80" width="120" height="80" as="geometry" />
        </mxCell>
        <mxCell id="VR3ee0ewY0EGGMs8ZrZJ-10" value="" style="endArrow=classic;html=1;rounded=0;exitX=0;exitY=0;exitDx=70;exitDy=80;exitPerimeter=0;entryX=0;entryY=0;entryDx=0;entryDy=15;entryPerimeter=0;" parent="1" source="VR3ee0ewY0EGGMs8ZrZJ-8" target="VR3ee0ewY0EGGMs8ZrZJ-5" edge="1">
          <mxGeometry width="50" height="50" relative="1" as="geometry">
            <mxPoint x="410" y="210" as="sourcePoint" />
            <mxPoint x="460" y="160" as="targetPoint" />
          </mxGeometry>
        </mxCell>
        <mxCell id="VR3ee0ewY0EGGMs8ZrZJ-11" value="" style="endArrow=classic;html=1;rounded=0;exitX=0.283;exitY=0.975;exitDx=0;exitDy=0;exitPerimeter=0;entryX=0;entryY=0;entryDx=0;entryDy=15;entryPerimeter=0;" parent="1" source="VR3ee0ewY0EGGMs8ZrZJ-9" target="VR3ee0ewY0EGGMs8ZrZJ-5" edge="1">
          <mxGeometry width="50" height="50" relative="1" as="geometry">
            <mxPoint x="560" y="260" as="sourcePoint" />
            <mxPoint x="610" y="210" as="targetPoint" />
          </mxGeometry>
        </mxCell>
        <mxCell id="go7qBU7iN6wXKlatQVZ4-1" value="H2&lt;div&gt;DB&lt;/div&gt;" style="shape=cylinder3;whiteSpace=wrap;html=1;boundedLbl=1;backgroundOutline=1;size=15;fillColor=#ffe6cc;strokeColor=#d79b00;" vertex="1" parent="1">
          <mxGeometry x="800" y="335" width="60" height="80" as="geometry" />
        </mxCell>
      </root>
    </mxGraphModel>
  </diagram>
</mxfile>
